<svg width="158" height="32" viewBox="0 0 158 32" fill="none" xmlns="http://www.w3.org/2000/svg">
<rect x="0.5" y="0.5" width="157" height="31" rx="3.5" fill="white"/>
<rect x="0.5" y="0.5" width="157" height="31" rx="3.5" stroke="#DDDFE3"/>
<mask id="mask0_857_2235" style="mask-type:luminance" maskUnits="userSpaceOnUse" x="8" y="6" width="20" height="20">
<path d="M28 6H8V26H28V6Z" fill="white"/>
</mask>
<g mask="url(#mask0_857_2235)">
<path d="M27.6 16.2301C27.6 15.5201 27.54 14.8401 27.42 14.1801H18V18.0501H23.38C23.15 19.3001 22.44 20.3601 21.38 21.0701V23.5801H24.61C26.5 21.8401 27.59 19.2801 27.59 16.2301H27.6Z" fill="#4285F4"/>
<path d="M18 26C20.7 26 22.96 25.1 24.62 23.58L21.39 21.07C20.49 21.67 19.35 22.02 18 22.02C15.4 22.02 13.19 20.26 12.4 17.9H9.06V20.49C10.71 23.76 14.09 26 18 26Z" fill="#34A853"/>
<path d="M12.4 17.9C12.2 17.3 12.09 16.66 12.09 16C12.09 15.34 12.2 14.7 12.4 14.1V11.51H9.06C8.38 12.86 8 14.39 8 16C8 17.61 8.39 19.14 9.06 20.49L12.4 17.9Z" fill="#FBBC04"/>
<path d="M18 9.98001C19.47 9.98001 20.79 10.48 21.82 11.48L24.69 8.61001C22.96 7.00001 20.69 6.01001 18 6.01001C14.09 6.01001 10.71 8.25001 9.06 11.52L12.4 14.11C13.19 11.75 15.39 9.99001 18 9.99001V9.98001Z" fill="#E94235"/>
</g>
<path d="M43.9092 17.4858C43.9092 17.3247 43.8841 17.1815 43.834 17.0562C43.7874 16.9308 43.7033 16.8162 43.5815 16.7124C43.4598 16.6086 43.2879 16.5083 43.0659 16.4116C42.8475 16.3114 42.5682 16.2093 42.228 16.1055C41.8556 15.9909 41.5119 15.8638 41.1968 15.7241C40.8853 15.5809 40.6131 15.4162 40.3804 15.23C40.1476 15.0402 39.9668 14.8236 39.8379 14.5801C39.709 14.333 39.6445 14.0483 39.6445 13.7261C39.6445 13.4074 39.7108 13.1174 39.8433 12.856C39.9793 12.5946 40.1709 12.369 40.418 12.1792C40.6686 11.9858 40.964 11.8372 41.3042 11.7334C41.6444 11.626 42.0203 11.5723 42.4321 11.5723C43.0122 11.5723 43.5117 11.6797 43.9307 11.8945C44.3532 12.1094 44.6772 12.3976 44.9028 12.7593C45.132 13.1209 45.2466 13.5202 45.2466 13.957H43.9092C43.9092 13.6992 43.8537 13.4718 43.7427 13.2749C43.6353 13.0744 43.4705 12.9168 43.2485 12.8022C43.0301 12.6877 42.7526 12.6304 42.416 12.6304C42.0973 12.6304 41.8324 12.6787 41.6211 12.7754C41.4098 12.8721 41.2523 13.0028 41.1484 13.1675C41.0446 13.3322 40.9927 13.5184 40.9927 13.7261C40.9927 13.8729 41.0267 14.0072 41.0947 14.1289C41.1628 14.2471 41.2666 14.3581 41.4062 14.4619C41.5459 14.5622 41.7214 14.6571 41.9326 14.7466C42.1439 14.8361 42.3927 14.922 42.6792 15.0044C43.1125 15.1333 43.4902 15.2765 43.8125 15.4341C44.1348 15.5881 44.4033 15.7635 44.6182 15.9604C44.833 16.1574 44.9941 16.3812 45.1016 16.6318C45.209 16.8789 45.2627 17.16 45.2627 17.4751C45.2627 17.8045 45.1965 18.1017 45.064 18.3667C44.9315 18.6281 44.7417 18.8519 44.4946 19.0381C44.2511 19.2207 43.9575 19.3621 43.6138 19.4624C43.2736 19.5591 42.894 19.6074 42.4751 19.6074C42.0991 19.6074 41.7285 19.5573 41.3633 19.457C41.0016 19.3568 40.6722 19.2046 40.375 19.0005C40.0778 18.7928 39.8415 18.535 39.666 18.2271C39.4906 17.9155 39.4028 17.5521 39.4028 17.1367H40.751C40.751 17.391 40.7939 17.6076 40.8799 17.7866C40.9694 17.9657 41.0929 18.1125 41.2505 18.2271C41.408 18.3381 41.5907 18.4204 41.7983 18.4741C42.0096 18.5278 42.2352 18.5547 42.4751 18.5547C42.7902 18.5547 43.0534 18.5099 43.2646 18.4204C43.4795 18.3309 43.6406 18.2056 43.748 18.0444C43.8555 17.8833 43.9092 17.6971 43.9092 17.4858ZM48.8882 19.6074C48.4585 19.6074 48.07 19.5376 47.7227 19.3979C47.3789 19.2547 47.0853 19.056 46.8418 18.8018C46.6019 18.5475 46.4175 18.2485 46.2886 17.9048C46.1597 17.561 46.0952 17.1904 46.0952 16.793V16.5781C46.0952 16.1234 46.1615 15.7116 46.2939 15.3428C46.4264 14.974 46.6108 14.6589 46.8472 14.3975C47.0835 14.1325 47.3628 13.9302 47.6851 13.7905C48.0073 13.6509 48.3564 13.5811 48.7324 13.5811C49.1478 13.5811 49.5112 13.6509 49.8228 13.7905C50.1343 13.9302 50.3921 14.1271 50.5962 14.3813C50.8039 14.632 50.9578 14.931 51.0581 15.2783C51.1619 15.6257 51.2139 16.0088 51.2139 16.4277V16.981H46.7236V16.0518H49.9355V15.9497C49.9284 15.717 49.8818 15.4985 49.7959 15.2944C49.7135 15.0903 49.5864 14.9256 49.4146 14.8003C49.2427 14.675 49.0135 14.6123 48.7271 14.6123C48.5122 14.6123 48.3206 14.6589 48.1523 14.752C47.9876 14.8415 47.8498 14.9722 47.7388 15.144C47.6278 15.3159 47.5418 15.5236 47.481 15.7671C47.4237 16.007 47.395 16.2773 47.395 16.5781V16.793C47.395 17.0472 47.429 17.2835 47.4971 17.502C47.5687 17.7168 47.6725 17.9048 47.8086 18.0659C47.9447 18.2271 48.1094 18.3542 48.3027 18.4473C48.4961 18.5368 48.7163 18.5815 48.9634 18.5815C49.2749 18.5815 49.5524 18.5189 49.7959 18.3936C50.0394 18.2682 50.2507 18.091 50.4297 17.8618L51.1118 18.5225C50.9865 18.7051 50.8236 18.8805 50.623 19.0488C50.4225 19.2135 50.1772 19.3478 49.8872 19.4517C49.6007 19.5555 49.2677 19.6074 48.8882 19.6074ZM55.9458 13.6885H57.1221V19.3389C57.1221 19.8617 57.0111 20.3057 56.7891 20.6709C56.5671 21.0361 56.2573 21.3136 55.8599 21.5034C55.4624 21.6968 55.0023 21.7935 54.4795 21.7935C54.2575 21.7935 54.0104 21.7612 53.7383 21.6968C53.4697 21.6323 53.2083 21.5285 52.9541 21.3853C52.7035 21.2456 52.494 21.0612 52.3257 20.832L52.9326 20.0693C53.1403 20.3164 53.3695 20.4972 53.6201 20.6118C53.8708 20.7264 54.134 20.7837 54.4097 20.7837C54.7069 20.7837 54.9593 20.7282 55.167 20.6172C55.3783 20.5098 55.5412 20.3504 55.6558 20.1392C55.7703 19.9279 55.8276 19.6701 55.8276 19.3657V15.0044L55.9458 13.6885ZM51.998 16.6587V16.5459C51.998 16.1055 52.0518 15.7044 52.1592 15.3428C52.2666 14.9775 52.4206 14.6642 52.6211 14.4028C52.8216 14.1379 53.0651 13.9355 53.3516 13.7959C53.638 13.6527 53.9621 13.5811 54.3237 13.5811C54.6997 13.5811 55.0202 13.6491 55.2852 13.7852C55.5537 13.9212 55.7775 14.1164 55.9565 14.3706C56.1356 14.6213 56.2752 14.922 56.3755 15.2729C56.4793 15.6203 56.5563 16.007 56.6064 16.4331V16.793C56.5599 17.2083 56.4811 17.5879 56.3701 17.9316C56.2591 18.2754 56.1123 18.5726 55.9297 18.8232C55.7471 19.0739 55.5215 19.2673 55.2529 19.4033C54.988 19.5394 54.6746 19.6074 54.313 19.6074C53.9585 19.6074 53.638 19.534 53.3516 19.3872C53.0687 19.2404 52.8252 19.0345 52.6211 18.7695C52.4206 18.5046 52.2666 18.193 52.1592 17.835C52.0518 17.4733 51.998 17.0812 51.998 16.6587ZM53.2925 16.5459V16.6587C53.2925 16.9237 53.3175 17.1707 53.3677 17.3999C53.4214 17.6291 53.502 17.8314 53.6094 18.0068C53.7204 18.1787 53.86 18.3148 54.0283 18.415C54.2002 18.5117 54.4025 18.5601 54.6353 18.5601C54.9396 18.5601 55.1885 18.4956 55.3818 18.3667C55.5788 18.2378 55.7292 18.0641 55.833 17.8457C55.9404 17.6237 56.0156 17.3766 56.0586 17.1045V16.1323C56.0371 15.9211 55.9924 15.7241 55.9243 15.5415C55.8599 15.3589 55.7721 15.1995 55.6611 15.0635C55.5501 14.9238 55.4105 14.8164 55.2422 14.7412C55.0739 14.6624 54.8752 14.623 54.646 14.623C54.4132 14.623 54.2109 14.6732 54.0391 14.7734C53.8672 14.8737 53.7257 15.0116 53.6147 15.187C53.5073 15.3625 53.4268 15.5666 53.373 15.7993C53.3193 16.0321 53.2925 16.2809 53.2925 16.5459ZM61.9614 18.1304V13.6885H63.2612V19.5H62.0366L61.9614 18.1304ZM62.144 16.9219L62.5791 16.9111C62.5791 17.3014 62.5361 17.6613 62.4502 17.9907C62.3643 18.3166 62.2318 18.6012 62.0527 18.8447C61.8737 19.0846 61.6445 19.2726 61.3652 19.4087C61.0859 19.5412 60.7511 19.6074 60.3608 19.6074C60.078 19.6074 59.8184 19.5662 59.582 19.4839C59.3457 19.4015 59.1416 19.2744 58.9697 19.1025C58.8014 18.9307 58.6707 18.7069 58.5776 18.4312C58.4845 18.1554 58.438 17.826 58.438 17.4429V13.6885H59.7324V17.4536C59.7324 17.6649 59.7575 17.8421 59.8076 17.9854C59.8577 18.125 59.9258 18.2378 60.0117 18.3237C60.0977 18.4097 60.1979 18.4705 60.3125 18.5063C60.4271 18.5422 60.5488 18.5601 60.6777 18.5601C61.0465 18.5601 61.3366 18.4884 61.5479 18.3452C61.7627 18.1984 61.9149 18.0015 62.0044 17.7544C62.0975 17.5073 62.144 17.2298 62.144 16.9219ZM65.9736 13.6885V19.5H64.6738V13.6885H65.9736ZM64.5879 12.1631C64.5879 11.9661 64.6523 11.8032 64.7812 11.6743C64.9137 11.5418 65.0964 11.4756 65.3291 11.4756C65.5583 11.4756 65.7391 11.5418 65.8716 11.6743C66.0041 11.8032 66.0703 11.9661 66.0703 12.1631C66.0703 12.3564 66.0041 12.5176 65.8716 12.6465C65.7391 12.7754 65.5583 12.8398 65.3291 12.8398C65.0964 12.8398 64.9137 12.7754 64.7812 12.6465C64.6523 12.5176 64.5879 12.3564 64.5879 12.1631ZM69.7656 18.5762C69.9769 18.5762 70.1667 18.535 70.335 18.4526C70.5068 18.3667 70.6447 18.2485 70.7485 18.0981C70.856 17.9478 70.915 17.7741 70.9258 17.5771H72.145C72.1379 17.9531 72.0269 18.2951 71.812 18.603C71.5972 18.911 71.3125 19.1562 70.958 19.3389C70.6035 19.5179 70.2114 19.6074 69.7817 19.6074C69.3377 19.6074 68.951 19.5322 68.6216 19.3818C68.2922 19.2279 68.0182 19.0166 67.7998 18.748C67.5814 18.4795 67.4167 18.1698 67.3057 17.8188C67.1982 17.4679 67.1445 17.092 67.1445 16.6909V16.5029C67.1445 16.1019 67.1982 15.7259 67.3057 15.375C67.4167 15.0205 67.5814 14.709 67.7998 14.4404C68.0182 14.1719 68.2922 13.9624 68.6216 13.812C68.951 13.658 69.3359 13.5811 69.7764 13.5811C70.2419 13.5811 70.6501 13.6742 71.001 13.8604C71.3519 14.043 71.6276 14.299 71.8281 14.6284C72.0322 14.9543 72.1379 15.3338 72.145 15.7671H70.9258C70.915 15.5522 70.8613 15.3589 70.7646 15.187C70.6715 15.0116 70.5391 14.8719 70.3672 14.7681C70.1989 14.6642 69.9966 14.6123 69.7603 14.6123C69.4989 14.6123 69.2822 14.666 69.1104 14.7734C68.9385 14.8773 68.8042 15.0205 68.7075 15.2031C68.6108 15.3822 68.541 15.5845 68.498 15.8101C68.4587 16.0321 68.439 16.263 68.439 16.5029V16.6909C68.439 16.9308 68.4587 17.1636 68.498 17.3892C68.5374 17.6147 68.6055 17.8171 68.7021 17.9961C68.8024 18.1715 68.9385 18.313 69.1104 18.4204C69.2822 18.5243 69.5007 18.5762 69.7656 18.5762ZM74.5244 13.6885V19.5H73.2246V13.6885H74.5244ZM73.1387 12.1631C73.1387 11.9661 73.2031 11.8032 73.332 11.6743C73.4645 11.5418 73.6471 11.4756 73.8799 11.4756C74.109 11.4756 74.2899 11.5418 74.4224 11.6743C74.5549 11.8032 74.6211 11.9661 74.6211 12.1631C74.6211 12.3564 74.5549 12.5176 74.4224 12.6465C74.2899 12.7754 74.109 12.8398 73.8799 12.8398C73.6471 12.8398 73.4645 12.7754 73.332 12.6465C73.2031 12.5176 73.1387 12.3564 73.1387 12.1631ZM81.9419 17.9263C81.9419 17.7974 81.9097 17.681 81.8452 17.5771C81.7808 17.4697 81.6572 17.373 81.4746 17.2871C81.2956 17.2012 81.0306 17.1224 80.6797 17.0508C80.3717 16.9827 80.0889 16.9022 79.8311 16.8091C79.5768 16.7124 79.3584 16.596 79.1758 16.46C78.9932 16.3239 78.8517 16.1628 78.7515 15.9766C78.6512 15.7904 78.6011 15.5755 78.6011 15.332C78.6011 15.0957 78.653 14.8719 78.7568 14.6606C78.8607 14.4494 79.0093 14.2632 79.2026 14.1021C79.396 13.9409 79.6305 13.8138 79.9062 13.7207C80.1855 13.6276 80.4971 13.5811 80.8408 13.5811C81.3278 13.5811 81.745 13.6634 82.0923 13.8281C82.4432 13.9893 82.7118 14.2095 82.8979 14.4888C83.0841 14.7645 83.1772 15.076 83.1772 15.4233H81.8828C81.8828 15.2694 81.8434 15.1261 81.7646 14.9937C81.6895 14.8576 81.5749 14.7484 81.4209 14.666C81.2669 14.5801 81.0736 14.5371 80.8408 14.5371C80.6188 14.5371 80.4344 14.5729 80.2876 14.6445C80.1444 14.7126 80.0369 14.8021 79.9653 14.9131C79.8973 15.0241 79.8633 15.1458 79.8633 15.2783C79.8633 15.375 79.8812 15.4627 79.917 15.5415C79.9564 15.6167 80.0208 15.6865 80.1104 15.751C80.1999 15.8118 80.3216 15.8691 80.4756 15.9229C80.6331 15.9766 80.8301 16.0285 81.0664 16.0786C81.5104 16.1717 81.8918 16.2917 82.2104 16.4385C82.5327 16.5817 82.7798 16.7679 82.9517 16.9971C83.1235 17.2227 83.2095 17.5091 83.2095 17.8564C83.2095 18.1143 83.154 18.3506 83.043 18.5654C82.9355 18.7767 82.778 18.9611 82.5703 19.1187C82.3626 19.2726 82.1138 19.3926 81.8237 19.4785C81.5373 19.5645 81.215 19.6074 80.8569 19.6074C80.3306 19.6074 79.8848 19.5143 79.5195 19.3281C79.1543 19.1383 78.8768 18.8966 78.687 18.603C78.5008 18.3058 78.4077 17.9979 78.4077 17.6792H79.6592C79.6735 17.9191 79.7397 18.1107 79.8579 18.2539C79.9797 18.3936 80.13 18.4956 80.3091 18.5601C80.4917 18.6209 80.6797 18.6514 80.873 18.6514C81.1058 18.6514 81.3009 18.6209 81.4585 18.5601C81.616 18.4956 81.736 18.4097 81.8184 18.3022C81.9007 18.1912 81.9419 18.0659 81.9419 17.9263ZM87.8394 18.1304V13.6885H89.1392V19.5H87.9146L87.8394 18.1304ZM88.022 16.9219L88.457 16.9111C88.457 17.3014 88.4141 17.6613 88.3281 17.9907C88.2422 18.3166 88.1097 18.6012 87.9307 18.8447C87.7516 19.0846 87.5225 19.2726 87.2432 19.4087C86.9639 19.5412 86.6291 19.6074 86.2388 19.6074C85.9559 19.6074 85.6963 19.5662 85.46 19.4839C85.2236 19.4015 85.0195 19.2744 84.8477 19.1025C84.6794 18.9307 84.5487 18.7069 84.4556 18.4312C84.3625 18.1554 84.3159 17.826 84.3159 17.4429V13.6885H85.6104V17.4536C85.6104 17.6649 85.6354 17.8421 85.6855 17.9854C85.7357 18.125 85.8037 18.2378 85.8896 18.3237C85.9756 18.4097 86.0758 18.4705 86.1904 18.5063C86.305 18.5422 86.4268 18.5601 86.5557 18.5601C86.9245 18.5601 87.2145 18.4884 87.4258 18.3452C87.6406 18.1984 87.7928 18.0015 87.8823 17.7544C87.9754 17.5073 88.022 17.2298 88.022 16.9219ZM95.606 19.5H93.9355L93.9463 18.4312H95.606C96.0894 18.4312 96.494 18.3255 96.8198 18.1143C97.1493 17.903 97.3963 17.6004 97.561 17.2065C97.7293 16.8127 97.8135 16.3436 97.8135 15.7993V15.375C97.8135 14.9525 97.7651 14.5783 97.6685 14.2524C97.5754 13.9266 97.4357 13.6527 97.2495 13.4307C97.0669 13.2087 96.8413 13.0404 96.5728 12.9258C96.3078 12.8112 96.0016 12.7539 95.6543 12.7539H93.9033V11.6797H95.6543C96.1735 11.6797 96.6479 11.7674 97.0776 11.9429C97.5073 12.1147 97.8779 12.3636 98.1895 12.6895C98.5046 13.0153 98.7463 13.4056 98.9146 13.8604C99.0828 14.3151 99.167 14.8236 99.167 15.3857V15.7993C99.167 16.3615 99.0828 16.87 98.9146 17.3247C98.7463 17.7795 98.5046 18.1698 98.1895 18.4956C97.8743 18.8179 97.4984 19.0667 97.0615 19.2422C96.6283 19.4141 96.1431 19.5 95.606 19.5ZM94.6821 11.6797V19.5H93.334V11.6797H94.6821ZM101.777 13.6885V19.5H100.478V13.6885H101.777ZM100.392 12.1631C100.392 11.9661 100.456 11.8032 100.585 11.6743C100.717 11.5418 100.9 11.4756 101.133 11.4756C101.362 11.4756 101.543 11.5418 101.675 11.6743C101.808 11.8032 101.874 11.9661 101.874 12.1631C101.874 12.3564 101.808 12.5176 101.675 12.6465C101.543 12.7754 101.362 12.8398 101.133 12.8398C100.9 12.8398 100.717 12.7754 100.585 12.6465C100.456 12.5176 100.392 12.3564 100.392 12.1631ZM106.456 17.9263C106.456 17.7974 106.423 17.681 106.359 17.5771C106.294 17.4697 106.171 17.373 105.988 17.2871C105.809 17.2012 105.544 17.1224 105.193 17.0508C104.885 16.9827 104.603 16.9022 104.345 16.8091C104.09 16.7124 103.872 16.596 103.689 16.46C103.507 16.3239 103.365 16.1628 103.265 15.9766C103.165 15.7904 103.115 15.5755 103.115 15.332C103.115 15.0957 103.167 14.8719 103.271 14.6606C103.374 14.4494 103.523 14.2632 103.716 14.1021C103.91 13.9409 104.144 13.8138 104.42 13.7207C104.699 13.6276 105.011 13.5811 105.354 13.5811C105.841 13.5811 106.259 13.6634 106.606 13.8281C106.957 13.9893 107.225 14.2095 107.412 14.4888C107.598 14.7645 107.691 15.076 107.691 15.4233H106.396C106.396 15.2694 106.357 15.1261 106.278 14.9937C106.203 14.8576 106.089 14.7484 105.935 14.666C105.781 14.5801 105.587 14.5371 105.354 14.5371C105.132 14.5371 104.948 14.5729 104.801 14.6445C104.658 14.7126 104.551 14.8021 104.479 14.9131C104.411 15.0241 104.377 15.1458 104.377 15.2783C104.377 15.375 104.395 15.4627 104.431 15.5415C104.47 15.6167 104.535 15.6865 104.624 15.751C104.714 15.8118 104.835 15.8691 104.989 15.9229C105.147 15.9766 105.344 16.0285 105.58 16.0786C106.024 16.1717 106.405 16.2917 106.724 16.4385C107.046 16.5817 107.293 16.7679 107.465 16.9971C107.637 17.2227 107.723 17.5091 107.723 17.8564C107.723 18.1143 107.668 18.3506 107.557 18.5654C107.449 18.7767 107.292 18.9611 107.084 19.1187C106.876 19.2726 106.627 19.3926 106.337 19.4785C106.051 19.5645 105.729 19.6074 105.371 19.6074C104.844 19.6074 104.398 19.5143 104.033 19.3281C103.668 19.1383 103.39 18.8966 103.201 18.603C103.014 18.3058 102.921 17.9979 102.921 17.6792H104.173C104.187 17.9191 104.253 18.1107 104.372 18.2539C104.493 18.3936 104.644 18.4956 104.823 18.5601C105.005 18.6209 105.193 18.6514 105.387 18.6514C105.619 18.6514 105.815 18.6209 105.972 18.5601C106.13 18.4956 106.25 18.4097 106.332 18.3022C106.414 18.1912 106.456 18.0659 106.456 17.9263ZM111.23 18.5762C111.442 18.5762 111.632 18.535 111.8 18.4526C111.972 18.3667 112.11 18.2485 112.213 18.0981C112.321 17.9478 112.38 17.7741 112.391 17.5771H113.61C113.603 17.9531 113.492 18.2951 113.277 18.603C113.062 18.911 112.777 19.1562 112.423 19.3389C112.068 19.5179 111.676 19.6074 111.247 19.6074C110.803 19.6074 110.416 19.5322 110.086 19.3818C109.757 19.2279 109.483 19.0166 109.265 18.748C109.046 18.4795 108.882 18.1698 108.771 17.8188C108.663 17.4679 108.609 17.092 108.609 16.6909V16.5029C108.609 16.1019 108.663 15.7259 108.771 15.375C108.882 15.0205 109.046 14.709 109.265 14.4404C109.483 14.1719 109.757 13.9624 110.086 13.812C110.416 13.658 110.801 13.5811 111.241 13.5811C111.707 13.5811 112.115 13.6742 112.466 13.8604C112.817 14.043 113.092 14.299 113.293 14.6284C113.497 14.9543 113.603 15.3338 113.61 15.7671H112.391C112.38 15.5522 112.326 15.3589 112.229 15.187C112.136 15.0116 112.004 14.8719 111.832 14.7681C111.664 14.6642 111.461 14.6123 111.225 14.6123C110.964 14.6123 110.747 14.666 110.575 14.7734C110.403 14.8773 110.269 15.0205 110.172 15.2031C110.076 15.3822 110.006 15.5845 109.963 15.8101C109.924 16.0321 109.904 16.263 109.904 16.5029V16.6909C109.904 16.9308 109.924 17.1636 109.963 17.3892C110.002 17.6147 110.07 17.8171 110.167 17.9961C110.267 18.1715 110.403 18.313 110.575 18.4204C110.747 18.5243 110.965 18.5762 111.23 18.5762ZM114.356 16.6587V16.5352C114.356 16.1162 114.417 15.7277 114.539 15.3696C114.661 15.008 114.836 14.6947 115.065 14.4297C115.298 14.1611 115.581 13.9535 115.914 13.8066C116.251 13.6562 116.63 13.5811 117.053 13.5811C117.479 13.5811 117.858 13.6562 118.191 13.8066C118.528 13.9535 118.813 14.1611 119.045 14.4297C119.278 14.6947 119.455 15.008 119.577 15.3696C119.699 15.7277 119.76 16.1162 119.76 16.5352V16.6587C119.76 17.0776 119.699 17.4661 119.577 17.8242C119.455 18.1823 119.278 18.4956 119.045 18.7642C118.813 19.0291 118.53 19.2368 118.197 19.3872C117.864 19.534 117.486 19.6074 117.063 19.6074C116.637 19.6074 116.256 19.534 115.919 19.3872C115.586 19.2368 115.304 19.0291 115.071 18.7642C114.838 18.4956 114.661 18.1823 114.539 17.8242C114.417 17.4661 114.356 17.0776 114.356 16.6587ZM115.651 16.5352V16.6587C115.651 16.9201 115.678 17.1672 115.731 17.3999C115.785 17.6326 115.869 17.8368 115.984 18.0122C116.098 18.1877 116.245 18.3255 116.424 18.4258C116.603 18.526 116.816 18.5762 117.063 18.5762C117.303 18.5762 117.511 18.526 117.687 18.4258C117.866 18.3255 118.012 18.1877 118.127 18.0122C118.242 17.8368 118.326 17.6326 118.379 17.3999C118.437 17.1672 118.465 16.9201 118.465 16.6587V16.5352C118.465 16.2773 118.437 16.0339 118.379 15.8047C118.326 15.5719 118.24 15.366 118.122 15.187C118.007 15.008 117.86 14.8683 117.681 14.7681C117.506 14.6642 117.296 14.6123 117.053 14.6123C116.809 14.6123 116.598 14.6642 116.419 14.7681C116.243 14.8683 116.098 15.008 115.984 15.187C115.869 15.366 115.785 15.5719 115.731 15.8047C115.678 16.0339 115.651 16.2773 115.651 16.5352ZM122.649 18.4741L124.073 13.6885H125.416L123.396 19.5H122.558L122.649 18.4741ZM121.559 13.6885L123.009 18.4956L123.079 19.5H122.241L120.211 13.6885H121.559ZM128.703 19.6074C128.273 19.6074 127.884 19.5376 127.537 19.3979C127.193 19.2547 126.9 19.056 126.656 18.8018C126.416 18.5475 126.232 18.2485 126.103 17.9048C125.974 17.561 125.91 17.1904 125.91 16.793V16.5781C125.91 16.1234 125.976 15.7116 126.108 15.3428C126.241 14.974 126.425 14.6589 126.662 14.3975C126.898 14.1325 127.177 13.9302 127.5 13.7905C127.822 13.6509 128.171 13.5811 128.547 13.5811C128.962 13.5811 129.326 13.6509 129.637 13.7905C129.949 13.9302 130.207 14.1271 130.411 14.3813C130.618 14.632 130.772 14.931 130.873 15.2783C130.976 15.6257 131.028 16.0088 131.028 16.4277V16.981H126.538V16.0518H129.75V15.9497C129.743 15.717 129.696 15.4985 129.61 15.2944C129.528 15.0903 129.401 14.9256 129.229 14.8003C129.057 14.675 128.828 14.6123 128.542 14.6123C128.327 14.6123 128.135 14.6589 127.967 14.752C127.802 14.8415 127.664 14.9722 127.553 15.144C127.442 15.3159 127.356 15.5236 127.295 15.7671C127.238 16.007 127.209 16.2773 127.209 16.5781V16.793C127.209 17.0472 127.243 17.2835 127.312 17.502C127.383 17.7168 127.487 17.9048 127.623 18.0659C127.759 18.2271 127.924 18.3542 128.117 18.4473C128.311 18.5368 128.531 18.5815 128.778 18.5815C129.089 18.5815 129.367 18.5189 129.61 18.3936C129.854 18.2682 130.065 18.091 130.244 17.8618L130.926 18.5225C130.801 18.7051 130.638 18.8805 130.438 19.0488C130.237 19.2135 129.992 19.3478 129.702 19.4517C129.415 19.5555 129.082 19.6074 128.703 19.6074ZM133.338 14.7949V19.5H132.043V13.6885H133.279L133.338 14.7949ZM135.116 13.6509L135.105 14.854C135.026 14.8397 134.94 14.8289 134.847 14.8218C134.758 14.8146 134.668 14.811 134.579 14.811C134.357 14.811 134.161 14.8433 133.993 14.9077C133.825 14.9686 133.683 15.0581 133.569 15.1763C133.458 15.2909 133.372 15.4305 133.311 15.5952C133.25 15.7599 133.214 15.9443 133.204 16.1484L132.908 16.1699C132.908 15.8047 132.944 15.4663 133.016 15.1548C133.087 14.8433 133.195 14.5693 133.338 14.333C133.485 14.0967 133.667 13.9123 133.886 13.7798C134.108 13.6473 134.364 13.5811 134.654 13.5811C134.733 13.5811 134.817 13.5882 134.906 13.6025C134.999 13.6169 135.069 13.633 135.116 13.6509Z" fill="#535356"/>
</svg>
