<?xml version="1.0" encoding="UTF-8"?><svg width="207" height="41" xmlns="http://www.w3.org/2000/svg"><path d="M7.75 29.966V0H6.3L0 3.02v.863l1.593 1.566v24.517c0 1.411-.095 2.002-1.567 2.093v1.505h9.266V32.06c-1.472-.091-1.541-.682-1.541-2.093zm17.798-.694v-10.92c0-4.698-2.773-7.057-8.13-7.057-4.19 0-7.01 2.157-7.01 5.073a3.015 3.015 0 003.048 3.158c1.77 0 2.679-1.139 2.679-2.55 0-1.794-1.598-2.247-1.598-2.838 0-.591.792-.94 1.809-.94 2.153 0 3.014 1.03 3.014 3.606V19.9l-3.686 1.67c-4.108 1.864-5.856 3.65-5.856 7.066 0 3.5 2.364 5.363 5.365 5.363a5.442 5.442 0 004.59-2.821c.41 1.777 1.774 2.821 3.682 2.821 1.684 0 3.182-.73 3.91-1.683V30.82c-.255.174-.554.27-.861.277-.642 0-.956-.548-.956-1.825zm-6.17-.91c0 1.367-.776 2.458-1.956 2.458s-1.83-1.018-1.83-3.21c0-2.588.728-3.697 2.153-4.715l1.632-1.126v6.592zm37.186-2.658c-.861-5.695-2.782-7.796-6.929-8.654 5.129-1.027 7.446-3.732 7.446-7.606 0-5.264-3.592-8.486-10.843-8.486H35.283V2.45c2.227.182 2.455.91 2.455 3.05v23.51c0 2.096-.547 2.868-2.455 3.05v1.505h11.898V32.06c-1.955-.182-2.454-.954-2.454-3.05V17.792h.684c1.542 0 2.782.6 3.182 2.014.625 2.24.65 7.166 1.542 10.29.861 2.976 2.958 3.71 5.684 3.71A7.825 7.825 0 0060 32.758l-.09-1.506c-1.818.444-2.558-.332-3.346-5.548zm-11.428-9.836h-.41V2.925h.565c3.737 0 4.663 1.976 4.663 6.773 0 4.798-.956 6.17-4.818 6.17zm25.881 14.144c-2.795 0-4.724-2.94-4.952-9.201h9.92v-.682c0-5.64-3.088-8.878-7.259-8.878-4.9 0-8.726 4.467-8.726 11.756 0 6.88 3.645 11.045 8.588 11.045 3.688 0 6.04-1.9 7.549-5.65l-1.32-.967c-1.053 1.705-2.053 2.577-3.8 2.577zM68.429 13.18c1.108 0 1.95 1.412 1.95 5.067v.673h-4.314c.073-4.488 1.087-5.753 2.355-5.753l.009.013zm21.037-1.88c-2.187 0-3.814 1.083-5 2.83V11.3h-1.428l-6.315 2.59v.871l1.596 1.567V37.4c0 1.415-.09 2.006-1.639 2.097V41h9.49v-1.502c-1.596-.09-1.687-.682-1.687-2.097v-3.824c.9.34 1.855.516 2.817.518 5.198 0 8.459-4.722 8.459-12.516 0-6.936-2.588-10.28-6.293-10.28zm-2.813 20.845c-1.523 0-2.187-1.23-2.187-3.37v-11.08c0-1.777.958-3.05 2.304-3.05 1.803 0 2.432 2.787 2.432 9.494.01 5.356-.327 8.006-2.549 8.006zm27.4-3.625V11.3h-1.411l-6.1 1.45v1.295c1.239.5 1.364 1.523 1.364 3.28V27.81c0 1.558-.936 2.814-2.33 2.814-1.294 0-1.777-.863-1.777-2.34V11.3h-1.402l-6.358 1.45v1.295c1.368.228 1.622 1.294 1.622 3.28v9.537c0 5.02 2.157 7.264 5.358 7.264 2.1 0 3.77-1.161 4.887-2.982v2.641h1.268l6.32-.937v-1.501c-1.312-.272-1.441-.678-1.441-2.827zm14.006-17.22c-2.157 0-3.78 1.122-4.961 2.83V0h-1.44l-6.294 3.021v.863l1.587 1.567v25.545c1.674 1.726 4.672 3.081 8.606 3.081 5.564 0 8.834-4.721 8.834-12.515 0-6.919-2.588-10.263-6.332-10.263zm-2.765 20.845c-1.532 0-2.196-1.044-2.196-2.823V17.695c0-1.778.958-3.052 2.303-3.052 1.803 0 2.433 2.788 2.433 9.495 0 5.356-.328 8.006-2.54 8.006zM146.986 11.3c-2.157 0-3.783 1.122-4.965 2.83V0h-1.44l-6.29 3.021v.863l1.584 1.567v25.545c1.673 1.726 4.671 3.082 8.605 3.082 5.552.017 8.834-4.73 8.834-12.5 0-6.935-2.588-10.28-6.328-10.28zm-2.77 20.845c-1.53 0-2.195-1.044-2.195-2.823V17.695c0-1.778.958-3.052 2.304-3.052 1.803 0 2.433 2.788 2.433 9.495 0 5.356-.328 8.006-2.541 8.006zm17.462-2.167V0h-1.428l-6.298 3.021v.863l1.592 1.567v24.526c0 1.412-.09 2.003-1.566 2.094v1.506h9.279V32.07c-1.475-.091-1.579-.682-1.579-2.094zm7.07-21.72a3.377 3.377 0 003.025-5.102 3.377 3.377 0 00-3.025-1.653 3.452 3.452 0 00-3.451 3.4 3.417 3.417 0 003.45 3.354zm3.006 21.72V11.3h-1.427l-6.311 2.59v.871l1.592 1.567v13.65c0 1.412-.091 2.003-1.566 2.094v1.506h9.282V32.07c-1.48-.091-1.57-.682-1.57-2.094zm11.492-13.038c0 1.412.82 2.59 2.588 2.59 1.958 0 3.02-1.601 3.02-3.306 0-2.97-2.477-4.929-5.997-4.929-5.098 0-9.304 3.954-9.304 12.12 0 6.378 3.45 10.707 8.45 10.707 3.645 0 5.383-2.465 6.565-5.516l-2.057-1.057c-.928 2.188-1.726 3.392-3.378 3.392-2.588 0-3.606-3.375-3.606-10.444 0-5.922 1.402-7.298 3.451-7.298 1.014 0 1.725.375 1.725.94 0 .566-1.457.967-1.457 2.801zm22.887 14.17c-.638 0-.958-.549-.958-1.826V18.359c0-4.7-2.778-7.06-8.14-7.06-4.196 0-7.022 2.158-7.022 5.075 0 1.593 1.092 3.16 3.05 3.16 1.777 0 2.687-1.14 2.687-2.551 0-1.796-1.6-2.249-1.6-2.84 0-.591.79-.941 1.812-.941 2.156 0 3.02 1.031 3.02 3.608v3.099l-3.693 1.67c-4.12 1.864-5.867 3.651-5.867 7.07 0 3.5 2.369 5.364 5.375 5.364a5.452 5.452 0 004.598-2.823c.41 1.778 1.773 2.823 3.688 2.823 1.683 0 3.188-.73 3.917-1.683v-1.498a1.6 1.6 0 01-.867.276zm-7.147-2.737c0 1.368-.777 2.46-1.959 2.46s-1.824-1.019-1.824-3.215c0-2.59.729-3.699 2.156-4.717l1.63-1.123-.003 6.595z"/></svg>